# xmcd
#
# Track frame offsets: 
#        150
#        27105
#        48671
#        80263
#        107208
#        136298
#        162665
#        185040
#        204350
#        224483
#        251117
#        277637
#        304234
#        323544
#
# Disc length: 4602 seconds
#
# Revision: 0
# Processed by: cddbd v1.5.2PL0 Copyright (c) Steve Scherf et al.
# Submitted via: ExactAudioCopy v0.99pb5
#
DISCID=c811f80e
DTITLE=Thuong Hue Mua Dong - Van Khanh
DYEAR=1900
DGENRE=VNVocal
TTITLE0=Tinh Hue
TTITLE1=Thuong Hue Mua Dong
TTITLE2=Huong Giang Thuo Ay
TTITLE3=Nho Tan Phi
TTITLE4=Tieng Xua
TTITLE5=Ta Ao Tim
TTITLE6=Day Thon Vi Da
TTITLE7=Thuong Ve Xu Hue
TTITLE8=Cam On Em
TTITLE9=Hue Dêm Trang
TTITLE10=Tinh Hue
TTITLE11=Ta Ao Tim
TTITLE12=Thuong Ve Xu Hue
TTITLE13=Thuong Hue Mua Dong
EXTD=
EXTT0=
EXTT1=
EXTT2=
EXTT3=
EXTT4=
EXTT5=
EXTT6=
EXTT7=
EXTT8=
EXTT9=
EXTT10=
EXTT11=
EXTT12=
EXTT13=
PLAYORDER=
